<?xml version="1.0" encoding="UTF-8" standalone="no"?>
<svg
   width="335"
   height="335"
   viewBox="0 0 335 335"
   fill="none"
   version="1.1"
   id="svg44"
   sodipodi:docname="logo.svg"
   inkscape:version="1.2.1 (9c6d41e410, 2022-07-14, custom)"
   xmlns:inkscape="http://www.inkscape.org/namespaces/inkscape"
   xmlns:sodipodi="http://sodipodi.sourceforge.net/DTD/sodipodi-0.dtd"
   xmlns="http://www.w3.org/2000/svg"
   xmlns:svg="http://www.w3.org/2000/svg">
  <defs
     id="defs48" />
  <sodipodi:namedview
     id="namedview46"
     pagecolor="#ffffff"
     bordercolor="#000000"
     borderopacity="0.25"
     inkscape:showpageshadow="2"
     inkscape:pageopacity="0.0"
     inkscape:pagecheckerboard="0"
     inkscape:deskcolor="#d1d1d1"
     showgrid="false"
     inkscape:zoom="1.6506194"
     inkscape:cx="58.765818"
     inkscape:cy="194.47245"
     inkscape:window-width="1920"
     inkscape:window-height="1011"
     inkscape:window-x="0"
     inkscape:window-y="0"
     inkscape:window-maximized="1"
     inkscape:current-layer="svg44" />
  <path
     fill-rule="evenodd"
     clip-rule="evenodd"
     d="M167.5 335C260.008 335 335 260.008 335 167.5C335 74.9923 260.008 0 167.5 0C74.9923 0 0 74.9923 0 167.5C0 260.008 74.9923 335 167.5 335ZM320.15 179.207H248.548V208.925H248.518C247.325 252.894 211.307 288.172 167.05 288.172C122.792 288.172 86.7741 252.894 85.5816 208.925H85.5511V179.207H14.8495C20.8295 258.287 86.8888 320.591 167.5 320.591C248.111 320.591 314.171 258.287 320.15 179.207ZM233.239 206.673V179.207H100.86V206.673C100.86 243.229 130.494 272.863 167.05 272.863C203.605 272.863 233.239 243.229 233.239 206.673ZM248.548 163.898H320.55C319.319 110.611 290.862 64.0547 248.548 37.5984V91.1388C258.46 94.2092 265.659 103.448 265.659 114.368C265.659 125.289 258.46 134.527 248.548 137.598V163.898ZM233.239 29.2022V91.4373C223.796 94.7752 217.03 103.782 217.03 114.368C217.03 124.955 223.796 133.961 233.239 137.299V163.898H174.704V110.582C184.615 107.511 191.815 98.2724 191.815 87.3521C191.815 76.4319 184.615 67.193 174.704 64.1227V14.5751C195.581 15.5422 215.365 20.6907 233.239 29.2022ZM159.395 110.283C149.951 106.945 143.185 97.9388 143.185 87.3521C143.185 76.7655 149.951 67.759 159.395 64.4212V14.6195C138.5 15.7094 118.713 20.9892 100.86 29.6347V91.4373C110.304 94.7752 117.07 103.782 117.07 114.368C117.07 124.955 110.304 133.961 100.86 137.299V163.898H159.395V110.283ZM85.5511 137.598V163.898H14.4501C15.6718 110.99 43.7345 64.7172 85.5511 38.1658V91.1388C75.6399 94.2092 68.4409 103.448 68.4409 114.368C68.4409 125.289 75.6399 134.527 85.5511 137.598Z"
     fill="#602FEE"
     id="path42" />
  <path
     style="fill:#ffffff;stroke-width:0.428389"
     d="M 159.57481,334.51834 C 112.5089,332.61827 67.091949,309.53659 37.267978,272.3599 17.148542,247.28028 5.0994377,218.45354 1.2273398,186.13491 0.65474709,181.35574 0.45746032,176.58042 0.45746032,167.5 c 0,-16.57344 1.25618998,-26.78187 5.19243038,-42.19629 C 21.119208,64.725436 71.584094,16.530318 132.7931,3.8790361 c 12.62816,-2.6101123 21.5738,-3.50538562 34.92109,-3.49487862 33.76138,0.0265769 64.59803,9.37328772 92.74617,28.11173252 8.93251,5.946447 16.68154,12.355467 25.08974,20.751085 24.43234,24.395775 40.2174,54.275605 46.40318,87.837425 2.07503,11.25836 2.59167,17.32161 2.59167,30.4156 0,13.09399 -0.51664,19.15724 -2.59167,30.4156 -11.47646,62.26715 -57.50045,112.91109 -118.52782,130.42578 -17.3096,4.96781 -34.61938,6.95333 -53.85065,6.17696 z m 25.06074,-14.71447 c 30.07989,-3.56724 55.83661,-14.36086 79.65482,-33.38016 5.52464,-4.41153 17.01334,-15.87096 21.78402,-21.72853 15.75184,-19.3405 26.68247,-42.30412 31.55012,-66.28206 1.29424,-6.37542 2.59608,-15.36993 2.59608,-17.93657 V 179.0665 H 284.27384 248.3271 l -0.20691,18.9562 c -0.21619,19.80615 -0.28263,20.60513 -2.40209,28.88626 -6.59531,25.76915 -26.32465,47.42561 -51.23116,56.23531 -43.3236,15.32402 -90.43022,-7.8098 -104.68735,-51.41144 -3.391254,-10.37125 -3.890254,-14.9313 -3.899798,-35.63788 l -0.0078,-17.02845 H 50.335678 14.779412 v 1.41005 c 0,2.27916 1.252294,11.22528 2.394156,17.10332 3.861772,19.87955 12.867935,40.9269 24.777524,57.90495 9.605639,13.69359 23.18462,27.36949 36.664438,36.92612 22.83991,16.19255 49.34355,25.76552 77.53217,28.0042 6.61313,0.5252 21.62011,0.20319 28.48785,-0.61127 z m -7.4968,-47.55285 c 14.17936,-2.18652 26.61306,-8.49439 36.80711,-18.67299 8.95,-8.93644 15.17298,-20.30178 18.11034,-33.07583 0.83358,-3.62509 0.9234,-5.50065 1.08681,-22.6937 l 0.17813,-18.742 h -66.43199 -66.43199 l 0.004,12.95876 c 0.004,14.82886 0.49576,23.13642 1.6933,28.62337 5.85767,26.83886 27.11842,46.99923 54.42186,51.60516 4.50419,0.75983 15.62697,0.75833 20.56266,-0.003 z M 85.891944,150.78224 v -13.29066 l -1.178069,-0.4447 c -6.66058,-2.51429 -11.915993,-7.70372 -14.548686,-14.36602 -1.050778,-2.6591 -1.163127,-3.46802 -1.15291,-8.30106 0.01307,-6.18497 0.683464,-8.58999 3.673785,-13.17971 2.794761,-4.289555 7.807243,-8.186817 12.456199,-9.684833 0.703329,-0.22663 0.749681,-1.884589 0.749681,-26.815113 0,-14.615451 -0.123261,-26.573546 -0.273912,-26.573546 -0.566977,0 -4.816139,2.809066 -9.40013,6.214306 -36.567059,27.164019 -59.30277,69.326046 -61.7149,114.446616 l -0.282554,5.28537 h 35.835749 35.835747 z m 73.682866,-13.63903 v -26.92969 l -2.89163,-1.41419 c -5.57404,-2.72607 -10.76149,-9.094021 -12.56296,-15.421914 -0.89736,-3.152059 -0.72181,-9.575992 0.35722,-13.072317 1.80447,-5.846945 6.48932,-11.40995 11.98971,-14.237149 l 3.10398,-1.595444 0.002,-24.953644 0.002,-24.953645 h -2.03747 c -2.98136,0 -12.45828,1.148835 -17.88261,2.167811 -11.16233,2.096875 -23.11776,5.738746 -33.20013,10.113451 l -5.78324,2.509331 -0.0986,31.052594 -0.0986,31.052593 3.09729,1.487765 c 4.01393,1.928062 8.52583,6.359276 10.48036,10.292928 4.33385,8.72222 3.37425,18.70407 -2.51425,26.15359 -2.00698,2.53902 -6.17344,5.73898 -9.0456,6.9473 l -2.03485,0.85605 v 13.43713 13.43713 h 29.55882 29.55883 z m 73.68286,13.49953 v -13.43015 l -2.89162,-1.45533 c -3.87587,-1.95068 -8.49591,-6.54438 -10.3311,-10.27218 -1.91529,-3.8905 -2.61749,-6.86975 -2.61749,-11.10528 0,-4.23554 0.7022,-7.21479 2.61749,-11.10529 1.86338,-3.78507 6.51114,-8.412834 10.34449,-10.299985 l 2.87823,-1.416947 V 60.210981 28.864383 l -5.67615,-2.40815 c -7.7278,-3.27858 -14.46028,-5.538758 -22.48709,-7.549201 -9.71239,-2.432626 -22.09186,-4.341815 -28.15299,-4.341815 h -2.37303 v 24.776516 24.776513 l 3.53709,1.752701 c 8.35206,4.138604 13.38573,12.257637 13.34229,21.520357 -0.0323,6.879885 -2.07644,11.760724 -7.01573,16.751386 -2.45199,2.47749 -4.01832,3.63825 -6.54363,4.84927 l -3.32002,1.59212 v 26.74441 26.7444 h 29.34463 29.34463 z m 87.23933,8.14478 C 318.78119,126.69219 306.69387,95.621942 286.07439,70.304822 281.30371,64.447253 269.81501,52.987815 264.29037,48.576289 259.91366,45.0814 252.78026,39.938933 249.85453,38.169483 l -1.60967,-0.973506 0.11031,27.073113 0.1103,27.073115 1.71356,0.66103 c 2.75357,1.062233 7.33234,4.270414 9.19693,6.443956 10.37967,12.099529 6.75375,30.346549 -7.42652,37.373149 l -3.69816,1.83251 v 13.21002 13.21002 h 36.26413 36.26414 z"
     id="path292" />
</svg>
