<svg width="335" height="335" viewBox="0 0 335 335" fill="none" xmlns="http://www.w3.org/2000/svg">
<path fill-rule="evenodd" clip-rule="evenodd" d="M167.5 335C260.008 335 335 260.008 335 167.5C335 74.9923 260.008 0 167.5 0C74.9923 0 0 74.9923 0 167.5C0 260.008 74.9923 335 167.5 335ZM320.15 179.207H248.548V208.925H248.518C247.325 252.894 211.307 288.172 167.05 288.172C122.792 288.172 86.7741 252.894 85.5816 208.925H85.5511V179.207H14.8495C20.8295 258.287 86.8888 320.591 167.5 320.591C248.111 320.591 314.171 258.287 320.15 179.207ZM233.239 206.673V179.207H100.86V206.673C100.86 243.229 130.494 272.863 167.05 272.863C203.605 272.863 233.239 243.229 233.239 206.673ZM248.548 163.898H320.55C319.319 110.611 290.862 64.0547 248.548 37.5984V91.1388C258.46 94.2092 265.659 103.448 265.659 114.368C265.659 125.289 258.46 134.527 248.548 137.598V163.898ZM233.239 29.2022V91.4373C223.796 94.7752 217.03 103.782 217.03 114.368C217.03 124.955 223.796 133.961 233.239 137.299V163.898H174.704V110.582C184.615 107.511 191.815 98.2724 191.815 87.3521C191.815 76.4319 184.615 67.193 174.704 64.1227V14.5751C195.581 15.5422 215.365 20.6907 233.239 29.2022ZM159.395 110.283C149.951 106.945 143.185 97.9388 143.185 87.3521C143.185 76.7655 149.951 67.759 159.395 64.4212V14.6195C138.5 15.7094 118.713 20.9892 100.86 29.6347V91.4373C110.304 94.7752 117.07 103.782 117.07 114.368C117.07 124.955 110.304 133.961 100.86 137.299V163.898H159.395V110.283ZM85.5511 137.598V163.898H14.4501C15.6718 110.99 43.7345 64.7172 85.5511 38.1658V91.1388C75.6399 94.2092 68.4409 103.448 68.4409 114.368C68.4409 125.289 75.6399 134.527 85.5511 137.598Z" fill="#602FEE"/>
</svg>
